<?xml version="1.0" standalone="no"?><!DOCTYPE svg PUBLIC "-//W3C//DTD SVG 1.1//EN" "http://www.w3.org/Graphics/SVG/1.1/DTD/svg11.dtd"><svg class="icon" width="200px" height="200.00px" viewBox="0 0 1024 1024" version="1.1" xmlns="http://www.w3.org/2000/svg"><path fill="#ffffff" d="M803.766087 436.208826l0 431.867962c0 11.67183-7.78122 19.453051-23.344684 19.453051l0 3.89061L667.591661 891.420449l0-46.688345 93.376691 0L760.968351 436.208826l-93.376691 0 0-46.688345 136.174426 0 0-77.81425L667.591661 311.706231l0-46.688345 159.51911 0c11.67183 0 23.344684 11.67183 23.344684 23.344684l0 0 0 124.502595c0 11.67183-11.67183 23.344684-23.344684 23.344684L803.766087 436.20985zM667.591661 891.421472 508.072551 891.421472 508.072551 245.564835l0 0 0 0c11.67183 0 23.344684-3.89061 31.125905-11.67183 7.78122-7.78122 11.67183-15.562441 11.67183-27.235294l0 0 0 0 0 0 0 0c0-11.67183-3.89061-23.344684-11.67183-31.125905-7.78122-7.78122-19.453051-11.67183-31.125905-11.67183l0 0 0 0 0-38.907125 0 0 0 0c23.344684 0 42.797735 7.78122 58.360176 23.344684s23.344684 35.016515 23.344684 58.360176l0 0 0 0 0 0 0 0c0 19.453051-7.78122 42.797735-23.344684 54.469566 0 3.89061 0 3.89061-3.89061 3.89061l105.048521 0 0 46.688345L527.526625 311.706231l0 77.81425 140.065036 0 0 46.688345L527.526625 436.208826l0 408.523277 140.065036 0L667.591661 891.421472zM508.072551 891.421472 375.788735 891.421472l0-46.688345 112.830765 0L488.6195 436.208826 375.788735 436.208826l0-46.688345 112.830765 0 0-77.81425L375.788735 311.706231l0-46.688345 81.70486 0c-3.89061 0-3.89061 0-3.89061-3.89061-15.562441-11.67183-27.235294-35.016515-27.235294-54.469566l0 0 0 0 0 0 0 0c0-23.344684 11.67183-42.797735 27.235294-58.360176 11.67183-15.562441 35.016515-23.344684 54.469566-23.344684l0 0 0 0 0 0 0 38.907125 0 0 0 0 0 0c-11.67183 0-19.453051 3.89061-27.235294 11.67183-7.78122 7.78122-11.67183 19.453051-11.67183 31.125905l0 0 0 0 0 0 0 0c0 11.67183 3.89061 19.453051 11.67183 27.235294 7.78122 7.78122 15.562441 11.67183 27.235294 11.67183l0 0 0 0 0 0L508.072551 891.421472zM375.788735 891.421472 235.723699 891.421472c-11.67183 0-23.344684-11.67183-23.344684-23.344684l0-3.89061 0-427.977351-19.453051 0c-11.67183 0-23.344684-11.67183-23.344684-23.344684L169.58128 288.36257c0-11.67183 11.67183-23.344684 23.344684-23.344684l0 0 182.862771 0 0 46.688345L216.270649 311.706231l0 77.81425 159.51911 0 0 46.688345L259.068384 436.208826l0 408.523277 116.721375 0L375.789759 891.421472z" /></svg>