<?xml version="1.0" standalone="no"?><!DOCTYPE svg PUBLIC "-//W3C//DTD SVG 1.1//EN" "http://www.w3.org/Graphics/SVG/1.1/DTD/svg11.dtd"><svg class="icon" width="200px" height="193.57px" viewBox="0 0 1058 1024" version="1.1" xmlns="http://www.w3.org/2000/svg"><path fill="#ffffff" d="M274.063334 165.067442h717.9857a66.859407 66.859407 0 0 1 51.198645 24.09348 65.052396 65.052396 0 0 1 13.853751 54.21033l-50.596308 280.086704a66.25707 66.25707 0 0 1-60.2337 54.210329l-574.629495 34.935546 10.842066 49.391634a25.900491 25.900491 0 0 0 25.298154 20.479458h528.249546a48.18696 48.18696 0 1 1 0 95.771582H406.577473a120.467399 120.467399 0 0 1-120.467399-96.373919l-120.4674-565.59444a25.900491 25.900491 0 0 0-25.298154-20.479458H47.584623A48.18696 48.18696 0 0 1 0 47.611728 47.584623 47.584623 0 0 1 47.584623 0.027105h92.759897a120.467399 120.467399 0 0 1 120.4674 95.771583l15.058425 69.871091zM471.027532 1024a81.917832 81.917832 0 1 1 81.917831-81.917832A81.917832 81.917832 0 0 1 471.027532 1024z m382.483993 0a81.917832 81.917832 0 1 1 81.917831-81.917832A81.917832 81.917832 0 0 1 853.511525 1024z"  /></svg>