<?xml version="1.0" standalone="no"?><!DOCTYPE svg PUBLIC "-//W3C//DTD SVG 1.1//EN" "http://www.w3.org/Graphics/SVG/1.1/DTD/svg11.dtd"><svg class="icon" width="200px" height="200.00px" viewBox="0 0 1024 1024" version="1.1" xmlns="http://www.w3.org/2000/svg"><path fill="#ffffff" d="M917.333333 896H106.666667c-12.8 0-21.333333-8.533333-21.333334-21.333333V384c0-6.4 4.266667-12.8 8.533334-17.066667l405.333333-277.333333c6.4-4.266667 17.066667-4.266667 23.466667 0l405.333333 277.333333c6.4 4.266667 8.533333 10.666667 8.533333 17.066667v490.666667c2.133333 12.8-6.4 21.333333-19.2 21.333333zM128 853.333333h768V394.666667L512 132.266667 128 394.666667V853.333333zM341.333333 554.666667h-85.333333c-12.8 0-21.333333-8.533333-21.333333-21.333334v-85.333333c0-12.8 8.533333-21.333333 21.333333-21.333333h85.333333c12.8 0 21.333333 8.533333 21.333334 21.333333v85.333333c0 12.8-8.533333 21.333333-21.333334 21.333334z m-64-42.666667h42.666667v-42.666667h-42.666667v42.666667zM341.333333 768h-85.333333c-12.8 0-21.333333-8.533333-21.333333-21.333333v-85.333334c0-12.8 8.533333-21.333333 21.333333-21.333333h85.333333c12.8 0 21.333333 8.533333 21.333334 21.333333v85.333334c0 12.8-8.533333 21.333333-21.333334 21.333333z m-64-42.666667h42.666667v-42.666666h-42.666667v42.666666zM554.666667 554.666667h-85.333334c-12.8 0-21.333333-8.533333-21.333333-21.333334v-85.333333c0-12.8 8.533333-21.333333 21.333333-21.333333h85.333334c12.8 0 21.333333 8.533333 21.333333 21.333333v85.333333c0 12.8-8.533333 21.333333-21.333333 21.333334z m-64-42.666667h42.666666v-42.666667h-42.666666v42.666667zM768 768H469.333333c-12.8 0-21.333333-8.533333-21.333333-21.333333v-85.333334c0-12.8 8.533333-21.333333 21.333333-21.333333h298.666667c12.8 0 21.333333 8.533333 21.333333 21.333333v85.333334c0 12.8-8.533333 21.333333-21.333333 21.333333z m-277.333333-42.666667h256v-42.666666H490.666667v42.666666zM768 554.666667h-85.333333c-12.8 0-21.333333-8.533333-21.333334-21.333334v-85.333333c0-12.8 8.533333-21.333333 21.333334-21.333333h85.333333c12.8 0 21.333333 8.533333 21.333333 21.333333v85.333333c0 12.8-8.533333 21.333333-21.333333 21.333334z m-64-42.666667h42.666667v-42.666667h-42.666667v42.666667z" /></svg>